<svg xmlns="http://www.w3.org/2000/svg" width="18.73" height="18.804" viewBox="0 0 18.73 18.804">
  <g id="export" transform="translate(-19775 -6531)">
    <g id="Group_2196" data-name="Group 2196" transform="translate(1.264)">
      <g id="export_icon" data-name="export icon" transform="translate(18020.916 4855.196)">
        <g id="Group_820" data-name="Group 820" transform="translate(1752.82 1675.804)">
          <g id="Group_815" data-name="Group 815" transform="translate(4.722 7.786)">
            <g id="Group_814" data-name="Group 814" transform="translate(0 0)">
              <path id="Path_2848" data-name="Path 2848" d="M235.4,235.467h-7.9a.554.554,0,0,0,0,1.1h7.9a.554.554,0,0,0,0-1.1Z" transform="translate(-227 -235.467)" fill="#fff"/>
            </g>
          </g>
          <g id="Group_817" data-name="Group 817" transform="translate(4.722 9.99)">
            <g id="Group_816" data-name="Group 816" transform="translate(0)">
              <path id="Path_2849" data-name="Path 2849" d="M235.4,263.467h-7.9a.554.554,0,0,0,0,1.1h7.9a.554.554,0,0,0,0-1.1Z" transform="translate(-227 -263.467)" fill="#fff"/>
            </g>
          </g>
          <g id="Group_819" data-name="Group 819" transform="translate(4.722 12.193)">
            <g id="Group_818" data-name="Group 818" transform="translate(0 0)">
              <path id="Path_2850" data-name="Path 2850" d="M235.4,291.467h-7.9a.554.554,0,0,0,0,1.1h7.9a.554.554,0,0,0,0-1.1Z" transform="translate(-227 -291.467)" fill="#fff"/>
            </g>
          </g>
          <path id="Path_2851" data-name="Path 2851" d="M185.313,151.635h7.807v-.551a.552.552,0,0,0-.551-.551H181.551a.552.552,0,0,0-.551.551v13.3a.552.552,0,0,0,.551.551h.551V154.846a1.642,1.642,0,0,1,.484-1.169l1.558-1.558A1.642,1.642,0,0,1,185.313,151.635Z" transform="translate(-179.898 -149.431)" fill="none"/>
          <path id="Path_2852" data-name="Path 2852" d="M210.72,178.694l-1.558,1.558a.547.547,0,0,0-.161.389v.095h2.2v-2.2h-.095A.547.547,0,0,0,210.72,178.694Z" transform="translate(-205.695 -175.228)" fill="none"/>
          <path id="Path_2853" data-name="Path 2853" d="M182.425,153.684a.552.552,0,0,1-.551.551H170.856a.552.552,0,0,1-.551-.551V143.144h2.754a.551.551,0,0,0,.551-.551v-2.754h8.263a.552.552,0,0,1,.551.551v9.384h1.1v-9.384a1.655,1.655,0,0,0-1.653-1.653h-.551v-.551a1.655,1.655,0,0,0-1.653-1.653H168.653A1.655,1.655,0,0,0,167,138.186v13.295a1.655,1.655,0,0,0,1.653,1.653h.551v.551a1.655,1.655,0,0,0,1.653,1.653h11.018a1.655,1.655,0,0,0,1.653-1.653Zm-9.916-11.642h-2.2v-.095a.547.547,0,0,1,.161-.389L172.025,140a.547.547,0,0,1,.39-.161h.095Zm-2.821-1.263a1.642,1.642,0,0,0-.484,1.169v10.084h-.551a.552.552,0,0,1-.551-.551V138.186a.552.552,0,0,1,.551-.551h11.018a.552.552,0,0,1,.551.551v.551h-7.807a1.642,1.642,0,0,0-1.169.484Z" transform="translate(-167 -136.533)" fill="#fff"/>
          <path id="Path_2854" data-name="Path 2854" d="M334.241,308.275c0-.016,0-.032,0-.049s0-.015,0-.022,0-.018,0-.026,0-.017-.006-.025l-.006-.023-.008-.024-.008-.022-.01-.022-.011-.023-.012-.02-.013-.022-.016-.021-.014-.018c-.01-.012-.021-.024-.032-.035l0,0-1.252-1.252a.5.5,0,0,0-.725.017.51.51,0,0,0,.027.7l.387.387H328.7a.5.5,0,1,0,0,1h3.833l-.387.387a.511.511,0,0,0-.012.717.5.5,0,0,0,.71,0l1.252-1.252h0c.011-.012.022-.023.033-.036l.014-.018.016-.021.013-.022.012-.02.011-.023.01-.021.008-.023.008-.024c0-.008,0-.015.006-.023s0-.016.006-.025,0-.018,0-.026,0-.015,0-.022,0-.032,0-.049h0Z" transform="translate(-315.511 -293.145)" fill="#fff"/>
        </g>
      </g>
    </g>
  </g>
</svg>
